<?xml version="1.0" encoding="utf-8"?>
<!-- Generator: Adobe Illustrator 16.0.0, SVG Export Plug-In . SVG Version: 6.00 Build 0)  -->
<!DOCTYPE svg PUBLIC "-//W3C//DTD SVG 1.1//EN" "http://www.w3.org/Graphics/SVG/1.1/DTD/svg11.dtd">
<svg version="1.1" id="Calque_1" xmlns="http://www.w3.org/2000/svg" xmlns:xlink="http://www.w3.org/1999/xlink" x="0px" y="0px"
	 width="1000px" height="1000px" viewBox="0 0 1000 1000" enable-background="new 0 0 1000 1000" xml:space="preserve">
<g>
	<rect x="94.973" y="83.583" width="161.107" height="833.9"/>
	<polyline points="350.682,695.375 108.7,148.453 256.169,83.583 451.389,527.38 	"/>
	<g>
		<path d="M719.397,756.377c-101.018,0-188.353-58.553-229.94-143.569l0.05,0.548l-2.756-6.259
			c-1.137-2.479-2.242-4.972-3.301-7.491L352.495,302.314c-31.917,58.956-50.046,126.469-50.046,198.219
			c0,230.276,186.675,416.949,416.949,416.949c66.175,0,128.732-15.441,184.312-42.878V677.956
			C857.168,726.294,791.8,756.377,719.397,756.377z"/>
		<path d="M719.397,83.583c-141.88,0-267.184,70.883-342.496,179.147l89.085,202.52c17.19-124.6,124.085-220.562,253.41-220.562
			c72.402,0,137.771,30.083,184.312,78.419V126.461C848.13,99.025,785.572,83.583,719.397,83.583z"/>
	</g>
</g>
<g>
</g>
<g>
</g>
<g>
</g>
<g>
</g>
<g>
</g>
<g>
</g>
</svg>
